<?xml version="1.0" encoding="UTF-8"?>
<svg xmlns="http://www.w3.org/2000/svg">
    <g class="Grab">
        <path class="hand" d="m25 117s-9-13-10-16c-0.8-3-12-17-12-17s-4-7-0.6-9c3-2 8 2 8 2l8 9s3-3-6-26c-9-21 4-19 5-14 2 4 12 29 12 29l-3-32s-0.1-5 5-5c4-0.2 5 5 5 5l2 31 4-25s2-5 6-4c4 0.8 4 5 4 5l-4 25 7-16s5-5 8-2c2 4-7 22-7 22s-1 20-2 24c-2 6-0.8 8-0.9 10-0.2 2 1 6 1 6s-7 2-9-5c-2-6-6 4-7 4l-13-0.6"/>
        <path class="gloveButton" d="m49 114c-0.6 1.5 0.68 1.7 0.68 1.7s1.5-0.11 1.2-1.1c-0.57-0.85-1.6-0.93-1.9-0.55z"/>
        <path class="gloveFolds" d="m30 85c4 14 3 17 3 17m5-18c4 15 3 18 3 18m4-17c4 15 3 16 3 16"/>
    </g>
    <g class="Pointer">
        <path class="hand" d="m25 117s-9-13-10-16c-0.8-3-3-13-3-13-0.9-5-0.5-10 4-11 5-0.4 3 1 3 1l2 4s-6-16-8-25c-0.7-2-3-12 2-13s6 3 7 5c2 4 9 27 9 27l-4-14s-1-3 3-5c5-2 6 4 6 4l3 13-2-13s-0.8-2 3-2c5-0.05 7 7 7 7l2 8-1-10s2-1 5 3c2 4 3 12 3 12s0.1 20-1 24c-2 6-0.8 8-0.9 10-0.2 2 1 6 1 6s-7 2-9-5c-2-6-6 4-7 4l-13-0.6"/>
        <path class="gloveButton" d="m49 114c-0.6 1.5 0.68 1.7 0.68 1.7s1.5-0.11 1.2-1.1c-0.57-0.85-1.6-0.93-1.9-0.55z"/>
        <path class="gloveFolds" d="m30 85c4 14 3 17 3 17m5-18c4 15 3 18 3 18m4-17c4 15 3 16 3 16"/>
    </g>
    <g class="Grabbing">
        <path class="hand" d="m25 117s-9-13-10-16c-0.8-3-3-13-3-13-0.9-5-0.5-10 4-11 5-0.4 5 2 5 2l0.3 3s0.9 1-2-7c-0.7-2-3-7-2-10 3-5 9-2 10 0.3 2 4 3 10 3 10l-4-14s-1-3 3-5c5-2 6 4 6 4l3 13-2-13s-0.9-2 3-2c5-0.05 7 7 7 7l2 9-1-10s3-2 5 2 3 13 3 13 0.1 20-1 24c-2 6-0.8 8-0.9 10-0.2 2 1 6 1 6s-7 2-9-5c-2-6-6 4-7 4l-13-0.6"/>
        <path class="gloveButton" d="m49 114c-0.6 1.5 0.68 1.7 0.68 1.7s1.5-0.11 1.2-1.1c-0.57-0.85-1.6-0.93-1.9-0.55z"/>
        <path class="gloveFolds" d="m30 85c4 14 3 17 3 17m5-18c4 15 3 18 3 18m4-17c4 15 3 16 3 16"/>
    </g>
</svg>
